<?xml version="1.0" standalone="no"?>
<!DOCTYPE svg PUBLIC "-//W3C//DTD SVG 1.1//EN" "http://www.w3.org/Graphics/SVG/1.1/DTD/svg11.dtd" >
<svg xmlns="http://www.w3.org/2000/svg">
<metadata>Generated by IcoMoon</metadata>
<defs>
<font id="icomoon" horiz-adv-x="1024">
<font-face units-per-em="1024" ascent="960" descent="-64" />
<missing-glyph horiz-adv-x="1024" />
<glyph unicode="&#x20;" horiz-adv-x="512" d="" />
<glyph unicode="&#xe900;" glyph-name="account" d="M819.2 601.591c0 169.662-137.54 307.2-307.2 307.2-169.662 0-307.2-137.538-307.2-307.2 0-169.66 137.538-307.2 307.2-307.2 169.66 0 307.2 137.54 307.2 307.2zM716.8 601.591c0-113.109-91.695-204.8-204.8-204.8-113.108 0-204.8 91.691-204.8 204.8s91.692 204.8 204.8 204.8c113.105 0 204.8-91.692 204.8-204.8zM254.805 123.302c170.075 29.594 344.359 29.594 514.432 0 3.469-0.602 12.186-2.18 19.529-3.49 28.791-5.683 52.689-22.583 67.046-45.359 4.489-7.121 8.67-14.554 12.855-22.003 12.079-21.478 24.23-43.085 44.113-57.754 24.491-18.061 60.079-1.391 60.041 28.122l-0.013 4.932c-1.775 91.298-69.581 169.254-163.307 187.746-7.142 1.28-18.146 3.281-21.892 3.93-182.221 31.71-368.954 31.71-551.177 0-3.747-0.649-14.751-2.65-21.892-3.93-93.724-18.492-161.532-96.448-163.306-187.746l-0.013-4.932c-0.038-29.513 35.552-46.182 60.039-28.122 19.887 14.669 32.034 36.275 44.111 57.754 4.188 7.45 8.367 14.882 12.858 22.003 14.357 22.775 38.255 39.676 67.045 45.359 7.342 1.31 16.061 2.889 19.53 3.49z" />
<glyph unicode="&#xe901;" glyph-name="arrow-down" horiz-adv-x="1593" d="M142.889 903.111c-0.909 0.026-1.979 0.041-3.053 0.041-31.444 0-59.908-12.755-80.501-33.373l-0.001-0.001c-20.585-20.589-33.316-49.030-33.316-80.444s12.732-59.856 33.316-80.445l660.222-660.222c20.59-20.582 49.031-33.311 80.444-33.311s59.854 12.73 80.445 33.312l660.222 660.222c20.585 20.589 33.316 49.030 33.316 80.444s-12.732 59.856-33.316 80.445v0c-20.589 20.585-49.030 33.316-80.444 33.316s-59.856-12.732-80.445-33.316l-579.778-579.778-579.778 579.778c-19.864 19.89-47.051 32.463-77.171 33.33l-0.163 0.004z" />
<glyph unicode="&#xe902;" glyph-name="arrow-left" d="M620.119 14.432c23.724-33.222 69.711-36.582 97.536-7.136l5.76 6.099c22.403 23.712 25.329 61.101 6.912 88.397l-284.935 348.367 284.927 344.047c18.417 27.292 15.498 64.678-6.912 88.394l-5.76 6.1c-27.817 29.447-73.805 26.083-97.536-7.135l-325.396-390.025c-17.488-24.482-17.488-58.282 0-82.758l325.403-394.351z" />
<glyph unicode="&#xe903;" glyph-name="arrow-right" d="M403.886 14.432c-23.729-33.222-69.716-36.582-97.537-7.136l-5.762 6.099c-22.405 23.712-25.329 61.101-6.911 88.397l284.935 348.367-284.929 344.047c-18.417 27.292-15.494 64.678 6.911 88.394l5.762 6.1c27.82 29.447 73.807 26.083 97.536-7.135l325.393-390.025c17.487-24.482 17.487-58.282 0-82.758l-325.398-394.351z" />
<glyph unicode="&#xe904;" glyph-name="arrow-strong-right" d="M740.131 504.896h-683.235v-113.778h683.235v-170.667l226.986 227.556-226.986 227.556v-170.666z" />
<glyph unicode="&#xe905;" glyph-name="cart" d="M51.2 857.591c0-28.276 17.569-51.2 102.4-51.2 0-75.29 17.53-149.545 51.2-216.887l53.752-107.504c30.546-61.094 47.111-128.175 48.546-196.386-59.604-21.116-102.298-77.982-102.298-144.823 0-84.834 68.769-153.6 153.6-153.6 84.829 0 153.6 68.766 153.6 153.6 0 63.898-39.019 118.686-94.531 141.833 15.444 36.979 51.954 62.967 94.531 62.967h134.067c47.872-0.017 80.678-0.026 109.918 6.908 79.514 18.863 145.242 74.543 176.917 149.871 11.639 27.699 17.028 60.060 24.879 107.285l1.092 6.55 0.678 3.985c2.3 13.563 5.103 30.005 3.243 45.108-4.979 40.467-33.493 74.124-72.589 85.689-14.592 4.316-31.27 4.26-45.026 4.214l-537.979-0.009c-28.276 0-51.2 22.924-51.2 51.2 0 56.554-45.846 102.4-102.4 102.4-84.831 0-102.4-22.923-102.4-51.2zM296.39 635.3c-3.085 6.17-5.998 12.414-8.738 18.724 6.402-0.813 12.926-1.232 19.549-1.232h533.935c9.647 0 15.061-0.014 19.004-0.204l0.734-0.039-0.081-0.729c-0.461-3.922-1.34-9.269-2.923-18.781-9.382-56.285-12.975-75.782-19.366-90.981-19.004-45.197-58.445-78.609-106.146-89.92-16.047-3.806-35.866-4.147-92.928-4.147h-127.428c-44.215 0-85.158-14.012-118.63-37.837-9.954 40.563-24.424 80.030-43.229 117.641l-53.752 107.505zM358.4 89.591c-28.276 0-51.2 22.921-51.2 51.2s22.924 51.2 51.2 51.2c28.277 0 51.2-22.921 51.2-51.2s-22.923-51.2-51.2-51.2zM768-12.804c84.834 0 153.6 68.766 153.6 153.6s-68.766 153.6-153.6 153.6c-84.834 0-153.6-68.766-153.6-153.6s68.766-153.6 153.6-153.6zM768 89.596c-28.275 0-51.2 22.921-51.2 51.2s22.925 51.2 51.2 51.2c28.279 0 51.2-22.921 51.2-51.2s-22.921-51.2-51.2-51.2z" />
<glyph unicode="&#xe906;" glyph-name="filter" d="M128 298.625c-35.346 0-64-28.654-64-64v0c0-35.346 28.654-64 64-64v0h426.625c35.346 0 64 28.654 64 64v0c0 35.346-28.654 64-64 64v0h-426.625zM426.625 725.375c-35.346 0-64-28.654-64-64v0c0-35.346 28.654-64 64-64v0h426.75c35.346 0 64 28.654 64 64v0c0 35.346-28.654 64-64 64v0h-426.75zM725.375 405.375c-93.499 0-170.75-77.251-170.75-170.75s77.251-170.625 170.75-170.625c93.499 0 170.625 77.126 170.625 170.625s-77.126 170.75-170.625 170.75zM725.375 277.375c24.322 0 42.625-18.428 42.625-42.75s-18.303-42.625-42.625-42.625c-24.322 0-42.75 18.303-42.75 42.625s18.428 42.75 42.75 42.75zM256 832c-93.498 0-170.625-77.126-170.625-170.625s77.127-170.75 170.625-170.75c93.499 0 170.625 77.252 170.625 170.75s-77.126 170.625-170.625 170.625zM256 704c24.323 0 42.625-18.302 42.625-42.625s-18.302-42.75-42.625-42.75c-24.322 0-42.625 18.428-42.625 42.75s18.303 42.625 42.625 42.625z" />
<glyph unicode="&#xe907;" glyph-name="row" horiz-adv-x="931" d="M93.091 960c-50.767 0-93.091-42.324-93.091-93.091v-232.727c0-50.767 42.324-93.091 93.091-93.091h744.727c50.767 0 93.091 42.324 93.091 93.091v232.727c0 50.767-42.324 93.091-93.091 93.091h-744.727zM93.091 866.909h744.727v-232.727h-744.727v232.727zM93.091 354.909c-50.767 0-93.091-42.324-93.091-93.091v-232.727c0-50.767 42.324-93.091 93.091-93.091h744.727c50.767 0 93.091 42.324 93.091 93.091v232.727c0 50.767-42.324 93.091-93.091 93.091h-744.727zM93.091 261.818h744.727v-232.727h-744.727v232.727z" />
<glyph unicode="&#xe908;" glyph-name="col" d="M42.667 917.333v-426.667h426.667v426.667h-426.667zM128 832h256v-256h-256v256zM42.667 405.333v-426.667h426.667v426.667h-426.667zM128 320h256v-256h-256v256zM554.667 917.333v-426.667h426.667v426.667h-426.667zM640 832h256v-256h-256v256zM554.667 405.333v-426.667h426.667v426.667h-426.667zM640 320h256v-256h-256v256z" />
<glyph unicode="&#xe909;" glyph-name="home" d="M509.5 949.25c-6.255-0.495-11.91-2.718-16.586-6.186l0.086 0.061-348.5-256.625c-57.309-42.199-91.125-109.206-91.125-180.375v-367.5c0-105.659 86.34-192 192-192h74.625c52.64 0 96 43.359 96 96v224h192v-224c0-52.64 43.36-96 96-96h74.625c105.659 0 192 86.341 192 192v367.5c0 71.169-33.819 138.175-91.125 180.375l-348.5 256.625c-5.237 3.889-11.829 6.225-18.966 6.225-0.892 0-1.775-0.036-2.649-0.108l0.115 0.008zM512 877.625l329.5-242.75c40.972-30.172 65.125-77.864 65.125-128.75v-367.5c0-71.070-56.93-128-128-128h-74.625c-18.054 0-32 13.946-32 32v224c0 34.97-29.030 64-64 64h-192c-34.97 0-64-29.033-64-64v-224c0-18.054-13.947-32-32-32h-74.625c-71.072 0-128 56.929-128 128v367.5c0 50.886 24.15 98.578 65.125 128.75l329.5 242.75z" />
<glyph unicode="&#xe90a;" glyph-name="location-around" d="M512 949.375c-252.936 0-458.625-205.814-458.625-458.75 0-100.713 62.656-202.046 137.5-293.625s164.115-172.818 226.125-225.375c54.792-46.437 135.209-46.438 190 0 62.012 52.557 151.281 133.796 226.125 225.375s137.5 192.913 137.5 293.625c0 252.936-205.691 458.75-458.625 458.75zM512 885.375c218.346 0 394.625-176.403 394.625-394.75 0-72.344-52.346-166.521-123.125-253.125s-157.645-166.079-217.875-217.125c-31.792-26.945-75.457-26.945-107.25 0-60.228 51.047-147.096 130.521-217.875 217.125s-123.125 180.781-123.125 253.125c0 218.348 176.277 394.75 394.625 394.75zM512 650.625c-87.987 0-160-72.013-160-160s72.013-160 160-160c87.987 0 160 72.013 160 160s-72.013 160-160 160zM512 586.625c53.398 0 96-42.602 96-96s-42.602-96-96-96c-53.398 0-96 42.602-96 96s42.602 96 96 96z" />
<glyph unicode="&#xe90b;" d="M818.24 833.152c-81.798 81.8-190.57 126.848-306.259 126.848-115.67 0-224.444-45.048-306.242-126.848s-126.848-190.572-126.848-306.262c0-234.020 221.284-428.669 340.154-533.245 16.516-14.515 30.792-27.072 42.15-37.69 14.236-13.293 32.512-19.955 50.788-19.955s36.55 6.662 50.808 19.955c11.358 10.618 25.634 23.174 42.15 37.69 118.867 104.576 340.154 299.226 340.154 533.245-0.006 115.69-45.050 224.461-126.854 306.262zM511.981 352.394c-105.234 0-190.852 85.618-190.852 190.872 0 105.234 85.619 190.852 190.852 190.852 105.254 0 190.874-85.618 190.874-190.852 0-105.254-85.62-190.872-190.874-190.872z" />
<glyph unicode="&#xe90c;" d="M945.094 526.89c0-234.020-221.28-428.669-340.152-533.245-16.516-14.515-30.792-27.072-42.15-37.69-14.256-13.293-32.532-19.955-50.808-19.955v416.394c105.254 0 190.87 85.618 190.87 190.872 0 105.234-85.616 190.852-190.87 190.852v225.882c115.69 0 224.463-45.048 306.262-126.848s126.848-190.572 126.848-306.262z" />
<glyph unicode="&#xe90d;" glyph-name="menu" d="M870.4 652.809c84.834 0 102.4 22.923 102.4 51.2s-17.566 51.2-102.4 51.2h-716.8c-84.831 0-102.4-22.924-102.4-51.2s17.569-51.2 102.4-51.2h716.8zM870.4 396.809c84.834 0 102.4 22.921 102.4 51.2 0 28.275-17.566 51.2-102.4 51.2h-716.8c-84.831 0-102.4-22.925-102.4-51.2 0-28.279 17.569-51.2 102.4-51.2h716.8zM972.8 192.009c0-28.279-17.566-51.2-102.4-51.2h-716.8c-84.831 0-102.4 22.921-102.4 51.2s17.569 51.2 102.4 51.2h716.8c84.834 0 102.4-22.921 102.4-51.2z" />
<glyph unicode="&#xe90e;" glyph-name="pharm" d="M1024 640.262h-319.738v319.738h-384.524v-319.738h-319.738v-384.524h319.738v-319.738h384.524v319.738h319.738v384.524z" />
<glyph unicode="&#xe90f;" glyph-name="phone" d="M833.434 44.228c2.837-6.716 4.279-13.534 4.279-20.446 0-9.579-2.539-18.483-7.637-26.79-5.073-8.282-12.211-14.626-21.367-19.004l-43.034-20.147c-16.789-7.637-33.604-13.184-50.445-16.644-16.841-3.456-33.852-5.197-51.068-5.197-27.682 0-55.019 4.604-82.033 13.807s-52.858 22.387-77.533 39.522c-24.675 17.139-47.833 37.884-69.449 62.187-21.616 24.329-40.993 51.439-58.082 81.365-10.895 16.589-22.337 35.52-34.351 56.785-10.173 18.112-21.79 39.799-34.874 65.097-13.084 25.276-26.267 53.355-39.6 84.177-13.631 30.844-24.451 57.783-32.436 80.815-7.985 23.057-14.178 42.21-18.531 57.459-5.099 17.809-8.606 33.084-10.522 45.794-7.015 23.606-12.188 47.087-15.497 70.444s-4.95 46.49-4.95 69.374c0 29.924 3.010 58.703 9.005 86.388s15.223 53.43 27.635 77.235c12.412 23.805 28.157 45.097 47.236 63.877s41.64 34.053 67.683 45.868l42.435 19.526c6.691 2.861 13.407 4.278 20.123 4.278 9.452 0 18.258-2.612 26.417-7.86 8.134-5.248 14.253-12.487 18.307-21.74l81.662-185.438c2.86-6.716 4.278-13.432 4.278-20.148 0-9.875-2.537-19.004-7.636-27.387s-12.263-14.676-21.516-18.854l-83.951-38.605c-11.094-5.099-19.576-12.561-25.496-22.436-5.895-9.875-8.855-20.497-8.855-31.889 0-8.656 1.617-16.79 4.876-24.427l137.828-314.734c5.398-12.113 12.835-21.018 22.362-26.714 9.502-5.696 19.875-8.559 31.068-8.559 7.636 0 15.422 1.741 23.357 5.201l83.951 38.605c6.618 2.833 13.282 4.275 19.998 4.275 9.254 0 18.010-2.611 26.244-7.859 8.23-5.248 14.451-12.437 18.628-21.589l81.489-185.613z" />
<glyph unicode="&#xe910;" glyph-name="group" horiz-adv-x="768" d="M58.174 541.095h651.624c12.608 0 23.52 4.603 32.73 13.817 9.203 9.211 13.824 20.118 13.824 32.724s-4.621 23.509-13.824 32.733l-325.814 325.814c-9.206 9.201-20.111 13.816-32.725 13.816s-23.519-4.616-32.733-13.816l-325.814-325.814c-9.214-9.213-13.816-20.126-13.816-32.733 0-12.604 4.603-23.514 13.816-32.724 9.224-9.214 20.129-13.817 32.733-13.817zM709.798 354.891h-651.624c-12.614 0-23.519-4.605-32.733-13.809-9.214-9.213-13.816-20.118-13.816-32.723 0-12.608 4.603-23.52 13.816-32.73l325.814-325.805c9.224-9.216 20.129-13.83 32.733-13.83s23.519 4.614 32.725 13.83l325.814 325.811c9.203 9.203 13.824 20.115 13.824 32.723 0 12.605-4.621 23.51-13.824 32.726-9.203 9.211-20.122 13.807-32.73 13.807z" />
<glyph unicode="&#xe911;" glyph-name="search" d="M743.027 202.362c3.597-43.59 22.522-84.698 53.683-115.859l85.325-85.325c8.941-8.941 21.069-13.965 33.715-13.965h2.739c2.893 0 4.326 0 5.549 0.058 26.362 1.261 47.443 22.342 48.704 48.704 0.058 1.222 0.058 2.656 0.058 5.549v2.739c0 12.646-5.024 24.774-13.965 33.715l-85.325 85.325c-31.162 31.162-72.269 50.086-115.859 53.683 69.869 73.466 112.749 172.838 112.749 282.227 0 226.216-183.386 409.6-409.6 409.6-226.216 0-409.6-183.384-409.6-409.6 0-226.214 183.384-409.6 409.6-409.6 109.389 0 208.762 42.88 282.227 112.749zM768 499.213c0-169.661-137.539-307.2-307.2-307.2s-307.2 137.539-307.2 307.2c0 169.661 137.538 307.2 307.2 307.2s307.2-137.539 307.2-307.2z" />
<glyph unicode="&#xe912;" glyph-name="check" d="M896.625 740c-0.548 0.017-1.192 0.026-1.839 0.026-17.689 0-33.701-7.176-45.285-18.776l-437.501-437.501-196 196.125c-11.587 11.616-27.611 18.803-45.312 18.803s-33.725-7.187-45.311-18.802l-0.001-0.001c-11.579-11.581-18.74-27.579-18.74-45.25s7.162-33.669 18.74-45.25l286.625-286.625 528 528c11.579 11.581 18.74 27.579 18.74 45.25s-7.162 33.669-18.74 45.25v0c-11.144 11.16-26.387 18.226-43.277 18.748l-0.098 0.002z" />
<glyph unicode="&#xe913;" glyph-name="close" d="M257.25 746.667c-0.365 0.011-0.795 0.018-1.226 0.018-11.792 0-22.468-4.784-30.19-12.517v0c-7.719-7.721-12.494-18.386-12.494-30.167s4.774-22.446 12.494-30.167l545-545c7.721-7.719 18.386-12.494 30.167-12.494s22.446 4.774 30.167 12.494v0c7.719 7.721 12.494 18.386 12.494 30.167s-4.774 22.446-12.494 30.167l-545 545c-7.43 7.44-17.591 12.151-28.852 12.498l-0.065 0.002zM802.25 746.667c-0.365 0.011-0.795 0.018-1.226 0.018-11.792 0-22.468-4.784-30.19-12.517v0l-545-545c-7.744-7.725-12.535-18.407-12.535-30.208s4.791-22.483 12.534-30.207l0.001-0.001c7.721-7.719 18.386-12.494 30.167-12.494s22.446 4.774 30.167 12.494l545 545.083c7.719 7.721 12.494 18.386 12.494 30.167s-4.774 22.446-12.494 30.167v0c-7.43 7.44-17.591 12.151-28.852 12.498l-0.065 0.002z" />
<glyph unicode="&#xe914;" d="M512 912c257.056 0 464-206.944 464-464s-206.944-464-464-464c-257.056 0-464 206.944-464 464s206.944 464 464 464z" />
<glyph unicode="&#xe915;" d="M512 960c-282.818 0-512-229.182-512-512s229.182-512 512-512c282.818 0 512 229.182 512 512s-229.182 512-512 512zM512 864c231.294 0 416-184.706 416-416s-184.706-416-416-416c-231.294 0-416 184.706-416 416s184.706 416 416 416z" />
<glyph unicode="&#xe916;" d="M566 192h-108.75v405.75h108.75v-405.75zM450.875 702.75c0 16.25 5.375 29.625 16.125 40.125 11 10.5 25.875 15.75 44.625 15.75 18.5 0 33.25-5.251 44.25-15.75s16.5-23.875 16.5-40.125c0-16.5-5.625-30-16.875-40.5-11-10.5-25.625-15.75-43.875-15.75s-33 5.25-44.25 15.75c-11 10.5-16.5 24-16.5 40.5z" />
<glyph unicode="&#xe917;" glyph-name="vector" horiz-adv-x="640" d="M562.207 418.214c40.724 51.53 64.993 116.39 64.993 186.857 0 167.752-137.539 303.741-307.2 303.741s-307.2-135.989-307.2-303.741c0-70.467 24.269-135.327 64.993-186.857l-38.79-281.254c-11.514-83.494-17.271-125.235 7.824-143.002s63.208 1.075 139.431 38.758l133.741 66.118 133.74-66.118c76.227-37.683 114.34-56.525 139.433-38.758 25.098 17.766 19.338 59.507 7.823 143.002zM524.801 605.071c0-111.835-91.694-202.493-204.8-202.493-113.108 0-204.8 90.659-204.8 202.493s91.692 202.494 204.8 202.494c113.106 0 204.8-90.66 204.8-202.494zM469.679 339.761c-44.288-24.477-95.334-38.429-149.678-38.429s-105.391 13.952-149.679 38.429l-29.857-216.484 179.536 88.755 179.538-88.755z" />
<glyph unicode="&#xe918;" glyph-name="time" d="M512 907.889c-253.464 0-459.889-206.425-459.889-459.889s206.425-459.889 459.889-459.889c253.464 0 459.889 206.425 459.889 459.889s-206.425 459.889-459.889 459.889zM512 822.556c207.346 0 374.556-167.209 374.556-374.556s-167.209-374.556-374.556-374.556c-207.346 0-374.556 167.209-374.556 374.556s167.209 374.556 374.556 374.556zM512 680.333c-23.564 0-42.667-19.103-42.667-42.667v0-227.556c0-0.031 0-0.067 0-0.103 0-11.757 4.755-22.403 12.446-30.121l-0.001 0.001 94.889-94.778c7.721-7.719 18.386-12.494 30.167-12.494s22.446 4.774 30.167 12.494v0c7.719 7.721 12.494 18.386 12.494 30.167s-4.774 22.446-12.494 30.167l-82.333 82.333v209.889c0 23.564-19.103 42.667-42.667 42.667v0z" />
<glyph unicode="&#xe919;" glyph-name="mail" horiz-adv-x="1170" d="M59.527 682.050c0 0-0.797-9.721-0.371-14.525-0.642-30.139-0.642-64.092-0.642-102.503v-234.057c0-165.5 0-248.254 51.415-299.666 51.416-51.419 134.167-51.419 299.671-51.419h351.086c165.5 0 248.254 0 299.666 51.419 51.419 51.412 51.419 134.166 51.419 299.666v234.057c0 38.411 0 72.364-0.644 102.503 0.424 4.804-0.373 14.525-0.373 14.525-2.736 90.899-12.873 145.117-50.403 182.642-51.412 51.415-134.166 51.415-299.666 51.415h-351.086c-165.504 0-248.255 0-299.671-51.415-37.525-37.525-47.663-91.743-50.402-182.642zM409.599 799.078h351.086c86.060 0 138.832-0.249 177.020-5.383 33.573-4.513 39.175-10.932 39.841-11.694l0.059-0.061 0.059-0.055c0.761-0.666 7.183-6.27 11.696-39.839 2.509-18.684 3.855-40.857 4.571-68.709-2.406-12.788-10.050-24.159-21.307-31.194l-232.419-145.262c-46.274-28.918-77.234-48.184-102.781-60.679-24.324-11.89-39.164-15.261-52.283-15.261s-27.96 3.37-52.281 15.261c-25.548 12.495-56.511 31.76-102.781 60.679l-232.419 145.262c-11.256 7.035-18.897 18.406-21.306 31.194 0.716 27.852 2.058 50.025 4.571 68.709 4.513 33.569 10.932 39.174 11.694 39.839l0.061 0.055 0.055 0.061c0.666 0.762 6.271 7.181 39.839 11.694 38.192 5.135 90.965 5.383 177.025 5.383zM994.743 517.961v-186.997c0-86.063-0.249-138.832-5.383-177.020-4.513-33.573-10.935-39.175-11.696-39.848l-0.059-0.051-0.059-0.066c-0.666-0.761-6.268-7.175-39.841-11.688-38.188-5.135-90.96-5.383-177.020-5.383h-351.086c-86.060 0-138.832 0.249-177.025 5.383-33.57 4.513-39.174 10.928-39.839 11.688l-0.055 0.066-0.061 0.051c-0.762 0.673-7.181 6.276-11.694 39.848-5.135 38.188-5.383 90.958-5.383 177.020v186.997l195.024-121.888c43.104-26.946 79.22-49.515 110.887-65.004 33.51-16.384 66.462-27.156 103.688-27.156s70.176 10.772 103.687 27.156c31.668 15.489 67.782 38.058 110.893 65.004z" />
<glyph unicode="&#xe91a;" glyph-name="logout" d="M510.3 22.765h-382.726c-23.474 0-42.524 19.053-42.524 42.522v765.45c0 23.474 19.052 42.524 42.524 42.524h382.726c23.516 0 42.524 19.008 42.524 42.524s-19.008 42.528-42.524 42.528h-382.726c-70.336 0-127.574-57.24-127.574-127.576v-765.45c0-70.336 57.238-127.571 127.574-127.571h382.726c23.516 0 42.524 19.008 42.524 42.522 0 23.52-19.008 42.528-42.524 42.528zM1011.328 478.264l-258.547 255.15c-16.672 16.5-43.629 16.286-60.134-0.426-16.499-16.712-16.326-43.63 0.429-60.13l184.768-182.346h-495.116c-23.516 0-42.524-19.008-42.524-42.524s19.008-42.526 42.524-42.526h495.116l-184.768-182.345c-16.755-16.499-16.883-43.418-0.429-60.134 8.339-8.416 19.309-12.672 30.278-12.672 10.803 0 21.606 4.083 29.856 12.25l258.547 255.151c8.083 7.994 12.672 18.882 12.672 30.278 0 11.392-4.544 22.236-12.672 30.274z" />
<glyph unicode="&#xe91b;" glyph-name="list" d="M896 960h-768c-70.57 0-128-57.43-128-128v-768c0-70.573 57.43-128 128-128h768c70.573 0 128 57.427 128 128v768c0 70.57-57.427 128-128 128zM938.669 64c0-23.552-19.162-42.669-42.669-42.669h-768c-23.51 0-42.666 19.117-42.666 42.669v768c0 23.51 19.158 42.666 42.666 42.666h768c23.507 0 42.669-19.158 42.669-42.666v-768zM295.256 720.203c-2.134 5.546-5.12 9.814-8.96 14.080-2.134 1.706-4.266 3.414-6.4 5.12-2.56 1.706-5.12 2.986-7.68 3.84-2.56 1.28-5.12 2.134-7.68 2.56-8.534 1.706-17.066 0.854-24.746-2.56-5.12-2.134-9.814-5.12-14.080-8.96-3.84-4.266-6.826-8.534-8.96-14.080-2.134-5.12-3.414-10.666-3.414-16.214s1.28-11.094 3.414-16.214c2.134-5.546 5.12-9.814 8.96-14.080 8.106-7.68 19.2-12.374 30.294-12.374 2.56 0 5.546 0.426 8.534 0.854 2.56 0.426 5.12 1.28 7.68 2.56 2.56 0.854 5.12 2.134 7.68 3.84 2.134 1.706 4.266 3.414 6.4 5.12 7.68 8.106 12.374 19.2 12.374 30.294-0.004 5.546-1.284 11.094-3.416 16.214zM768 746.656h-341.334c-23.552 0-42.666-19.114-42.666-42.666s19.114-42.666 42.666-42.666h341.334c23.552 0 42.669 19.114 42.669 42.666s-19.117 42.666-42.669 42.666zM297.816 456.549c-0.426 2.56-1.28 5.12-2.56 7.68-0.854 2.56-2.134 5.12-3.84 7.68-1.706 2.134-3.414 4.266-5.12 6.4-4.266 3.84-8.96 6.826-14.080 8.96-10.24 4.266-22.186 4.266-32.426 0-5.12-2.134-9.814-5.12-14.080-8.96-1.706-2.134-3.414-4.266-5.12-6.4-1.706-2.56-2.986-5.12-3.84-7.68-1.28-2.56-2.134-5.12-2.56-7.68-0.426-2.986-0.854-5.974-0.854-8.534 0-11.094 4.694-22.186 12.374-30.294 8.106-7.68 19.2-12.374 30.294-12.374s22.186 4.694 30.294 12.374c7.68 8.106 12.374 19.2 12.374 30.294-0.004 2.56-0.43 5.546-0.856 8.534zM768 490.656h-341.334c-23.552 0-42.666-19.114-42.666-42.665s19.114-42.666 42.666-42.666h341.334c23.552 0 42.669 19.114 42.669 42.666s-19.117 42.665-42.669 42.665zM295.256 208.211c-2.134 5.549-5.12 9.818-8.96 14.080-11.946 11.565-30.72 15.36-46.506 8.96-5.12-2.131-9.814-5.12-14.080-8.96-3.84-4.262-6.826-8.96-8.96-14.080s-3.414-10.662-3.414-16.211c0-11.52 4.266-22.189 12.374-30.298 8.106-8.064 18.774-12.371 30.294-12.371s22.186 4.307 30.294 12.371c8.106 8.109 12.374 18.778 12.374 30.298-0.004 5.542-0.856 11.091-3.416 16.211zM768 234.656h-341.334c-23.552 0-42.666-19.072-42.666-42.669 0-23.59 19.114-42.662 42.666-42.662h341.334c23.552 0 42.669 19.072 42.669 42.662 0 23.597-19.117 42.669-42.669 42.669z" />
<glyph unicode="&#xe91c;" d="M512 912c257.056 0 464-206.944 464-464s-206.944-464-464-464c-257.056 0-464 206.944-464 464s206.944 464 464 464z" />
<glyph unicode="&#xe91d;" d="M512 960c-282.818 0-512-229.182-512-512s229.182-512 512-512c282.818 0 512 229.182 512 512s-229.182 512-512 512zM512 864c231.294 0 416-184.706 416-416s-184.706-416-416-416c-231.294 0-416 184.706-416 416s184.706 416 416 416z" />
<glyph unicode="&#xe91e;" d="M582.875 256c-5 9.747-8.625 21.875-10.875 36.378-26.25-29.254-60.375-43.878-102.375-43.878-39.75 0-72.75 11.501-99 34.502-26 22.995-39 51.999-39 86.998 0 43 15.875 76 47.625 99 32 23 78.125 34.625 138.375 34.876h49.875v23.25c0 18.75-4.875 33.75-14.625 45-9.5 11.25-24.625 16.875-45.375 16.875-18.25 0-32.625-4.374-43.125-13.124-10.25-8.75-15.375-20.75-15.375-36h-108.374c0 23.5 7.25 45.25 21.75 65.25s35 35.625 61.5 46.875c26.5 11.5 56.25 17.25 89.25 17.25 50 0 89.625-12.625 118.875-37.875 29.498-25 44.25-60.25 44.25-105.75v-175.875c0.25-38.499 5.626-67.625 16.128-87.375v-6.374zM493.25 331.375c16 0 30.75 3.5 44.25 10.5 13.5 7.25 23.5 16.875 30 28.875v69.75h-40.5c-54.25 0-83.125-18.75-86.625-56.25l-0.375-6.375c0-13.5 4.75-24.625 14.25-33.375s22.5-13.125 39-13.125z" />
<glyph unicode="&#xe91f;" glyph-name="car" d="M277.273 930.455c-38.172 0-72.639-23.362-87.273-58.545l-0.727-1.727-98.455-324.273c-36.292-28.189-61.273-70.435-61.273-119.727v-234.455c0-43.098 32.14-74.261 71.818-85.727v-45.091c0-51.998 42.633-95.364 94.727-95.364h57.455c52.096 0 94.636 43.366 94.636 95.364v35.455h313.364v-35.455c0-51.997 42.541-95.364 94.636-95.364h57.455c52.097 0 94.727 43.366 94.727 95.364v39.091c47.5 5.062 86.091 43.056 86.091 91.727v234.455c0 49.219-24.889 91.442-61.091 119.636l-98.545 324.364-0.727 1.727c-14.634 35.184-49.192 58.545-87.364 58.545h-469.455zM277.273 856h469.455c7.94 0 14.996-4.718 18.364-12.455l80.273-264.455c-1.060 0.022-1.935 0.636-3 0.636h-660.636c-1.064 0-1.941-0.614-3-0.636l80.273 264.455c3.369 7.737 10.333 12.455 18.273 12.455zM146.818 490.727h730.455c23.932-13.318 42.727-34.268 42.727-64.545v-234.455c0-12.235-8.819-20.909-20.182-20.909h-775.545c-11.359 0-20.182 8.674-20.182 20.909v234.455c0 30.277 18.796 51.228 42.727 64.545zM239.182 448c-60.031 0-109.091-49.886-109.091-109.909 0-60.027 49.063-110 109.091-110 60.026 0 109 49.97 109 110 0 60.025-48.971 109.909-109 109.909zM784.909 448c-60.029 0-109.091-49.884-109.091-109.909 0-60.030 49.065-110 109.091-110 60.028 0 109.091 49.973 109.091 110 0 60.023-49.060 109.909-109.091 109.909zM378.455 440.727v-74.455h267.182v74.455h-267.182zM239.182 373.545c19.285 0 34.545-15.198 34.545-35.455 0-20.27-15.258-35.455-34.545-35.455-19.293 0-34.636 15.182-34.636 35.455 0 20.259 15.346 35.455 34.636 35.455zM784.909 373.545c19.292 0 34.545-15.196 34.545-35.455 0-20.273-15.251-35.455-34.545-35.455-19.287 0-34.545 15.185-34.545 35.455 0 20.256 15.261 35.455 34.545 35.455zM378.455 307.182v-74.545h267.182v74.545h-267.182zM175.909 96.364h97.818v-35.455c0-12.235-8.822-20.909-20.182-20.909h-57.455c-11.352 0-20.182 8.674-20.182 20.909v35.455zM736 96.364h97.818v-35.455c0-12.235-8.819-20.909-20.182-20.909h-57.455c-11.355 0-20.182 8.674-20.182 20.909v35.455z" />
<glyph unicode="&#xe920;" glyph-name="edit" d="M789.5 938.4c-19.059-0.263-34.92-3.39-46.4-6.5-1.609-0.436-3.036-0.791-4.4-1.2l-12.4-3.7-615.5-615.5-2.1-17.6-30.8-256.7 274.3 32.9 615.4 615.5 3.7 12.3c0.436 1.444 0.871 2.919 1.3 4.5v0.1c3.097 11.447 6.238 27.23 6.5 46.3 0.499 36.436-12.057 88.858-56.4 133.2s-96.758 56.903-133.2 56.4zM790.9 836c16.612 0.229 34.592-1.592 59.4-26.4s26.628-42.776 26.4-59.4c-0.069-5.007-0.993-8.375-1.7-12.4l-570.2-570.2-109.6-13.1 13.1 109.6 570.2 570.2c4.022 0.706 7.384 1.631 12.4 1.7zM645 845.5l-72.4-72.4 229.9-229.9 72.4 72.5-229.9 229.8z" />
<glyph unicode="&#xe921;" glyph-name="emoji-icon" d="M730.655 455.474c-144.338 28.869-292.97 28.869-437.311 0-21.714-4.343-37.8-23.515-34.518-45.413 8.071-53.857 33.181-104.1 72.154-143.073 48.009-48.010 113.124-74.982 181.019-74.982 67.897 0 133.014 26.972 181.019 74.982 38.973 38.973 64.082 89.216 72.156 143.073 3.282 21.898-12.805 41.070-34.519 45.413zM403.387 339.395c-8.212 8.212-15.398 17.26-21.476 26.941 86.363 11.187 173.814 11.187 260.178 0-6.077-9.682-13.266-18.729-21.478-26.941-28.805-28.805-67.876-44.989-108.612-44.989-40.737 0-79.806 16.184-108.612 44.989zM409.6 601.6c0-28.277-22.923-51.2-51.2-51.2s-51.2 22.923-51.2 51.2c0 28.277 22.923 51.2 51.2 51.2s51.2-22.923 51.2-51.2zM665.6 550.4c28.278 0 51.2 22.923 51.2 51.2s-22.922 51.2-51.2 51.2c-28.278 0-51.2-22.923-51.2-51.2s22.922-51.2 51.2-51.2zM972.8 448c0 254.493-206.305 460.8-460.8 460.8-254.493 0-460.8-206.307-460.8-460.8 0-254.495 206.307-460.8 460.8-460.8 254.495 0 460.8 206.305 460.8 460.8zM870.4 448c0-197.939-160.461-358.4-358.4-358.4s-358.4 160.461-358.4 358.4c0 197.939 160.461 358.4 358.4 358.4s358.4-160.461 358.4-358.4z" />
<glyph unicode="&#xe922;" glyph-name="man" horiz-adv-x="605" d="M289.545 945.455c-79.308 0-139.727-68.195-139.727-146 0-43.327 22.391-78.865 52.636-106.091l-99.455-84.182c-29.845-25.289-47-62.52-47-101.636v-85.182c0-45.777 37.68-83.455 83.455-83.455 22.61 0 43.080 9.446 58.182 24.273-18.617-49.003-67.108-152.479-140.182-242.364-27.355-33.656-27.396-84.059 3.545-117.182 35.829-38.356 99.577-36.888 132.545 5.636 27.921 36.008 62.508 83.519 93.273 132.364 10.503 16.672 18.489 33.77 27.909 50.818 32.982-60.485 57.366-124.164 67.818-169.727 9.263-40.386 45.202-72.182 89.364-72.182 47.773 0 91.836 40.245 87.727 92.818-10.096 129.121-79.859 247.399-130.455 315.545l28-7.182c45.236-11.664 93.048 8.258 116.545 48.636 34.042 58.516 3.081 134.943-62.091 153.273l-94.818 26.727v-0.273c0 33.741-12.784 66.252-35.818 90.909l-14.545 15.545c35.96 26.96 62.909 65.135 62.909 112.909 0 77.805-60.51 146-139.818 146zM289.545 889.545c47.295 0 83.909-40.709 83.909-90.091 0-40.557-25.541-75.468-60-86.364l-27.909-8.818-26.818 11.364c-30.801 13.037-53.091 46.038-53.091 83.818 0 49.382 36.614 90.091 83.909 90.091zM284.273 674.818l24.545-13.091c5.696-3.027 10.863-6.913 15.364-11.727l16-17.091c13.385-14.328 20.818-33.214 20.818-52.818v-203.636l4.364-1.091c2.446-15.346 5.696-30.836 15.182-43.364 46.316-61.201 114.539-178.978 123.455-293 1.551-19.851-14.477-32.545-32.091-32.545-17.347 0-31.188 12.505-34.909 28.727-14.265 62.183-44.917 152.512-98.455 231.727l-28.091 41.545-20.545-45.727c-12.85-28.628-30.958-60.471-50.364-91.273-29.405-46.685-63.080-93.075-90.091-127.909-12.428-16.030-34.264-16.133-47.636-1.818-11.677 12.501-11.408 31.012-1 43.818 81.704 100.501 133.933 213.669 153.182 266.727l1.636 4.636v128.818c0 35.5-45.049 56.746-72.455 34.182-10.197-8.405-16.091-20.968-16.091-34.182v-63.364c0-15.589-12.046-27.636-27.636-27.636-15.585 0-27.636 12.048-27.636 27.636v85.182c0 22.737 10.016 44.3 27.364 59l104 88.182c4.659 3.947 9.821 7.056 15.364 9.364l25.727 10.727zM416.818 522.273l79.727-22.364c31.335-8.813 45.276-43.321 28.909-71.455-11.048-18.986-33.099-28.119-54.364-22.636l-54.273 14v102.455z" />
<glyph unicode="&#xe923;" horiz-adv-x="883" d="M441.379 924.69c-171.211 0-310.345-139.138-310.345-310.344 0-57.932 16.038-114.312 46.554-162.933l242.753-397.266c4.142-6.725 10.348-10.863 17.592-11.898 9.823-1.55 20.692 2.586 26.379 12.413l243.449 400.889c28.962 47.584 43.963 102.93 43.963 158.794 0 171.206-139.133 310.344-310.344 310.344zM441.379 459.172c-86.893 0-155.173 70.345-155.173 155.173 0 85.347 69.826 155.171 155.173 155.171s155.173-69.824 155.173-155.171c0-84.311-67.243-155.173-155.173-155.173z" />
<glyph unicode="&#xe924;" horiz-adv-x="883" d="M441.379 924.69v-155.173c85.347 0 155.173-69.824 155.173-155.171 0-84.311-67.243-155.173-155.173-155.173v-417.225c8.826-0.205 17.902 4.025 22.931 12.715l243.449 400.889c28.963 47.584 43.965 102.93 43.965 158.794 0 171.206-139.133 310.344-310.344 310.344z" />
<glyph unicode="&#xe925;" glyph-name="map-man" horiz-adv-x="745" d="M572.174 841.598c0-53.686-43.52-97.208-97.206-97.208-53.689 0-97.211 43.521-97.211 97.208s43.522 97.209 97.211 97.209c53.686 0 97.206-43.522 97.206-97.209zM572.616 401.389c-20.415 6.805-38.205 20.364-50.111 38.251l-58.714 88.12-31.448-188.826 105.521-79.132c19.13-14.317 32.317-35.188 37.036-58.615l44.958-224.889-95.311-19.102-44.963 224.791-122.334 91.769-25.129-116.066c-5.2-24.311-19.392-45.447-39.855-59.541l-178.62-122.875-55.069 80.1 178.572 122.824 87.682 405.65-108.047-27.024-87.195-174.44-86.953 43.501 87.196 174.439c6.286 12.551 15.215 23.594 26.172 32.37s23.683 15.076 37.304 18.47l155.194 38.737c22.471 5.694 46.241 3.124 66.976-7.242l69.697-34.85c15.099-7.593 27.974-18.962 37.376-33.002l80.831-121.27 130.011-43.352-30.762-92.155-130.015 43.357z" />
<glyph unicode="&#xe926;" d="M469.333 960v-59.083c-218.712-21.207-389.043-191.538-410.25-410.25h-59.083v-85.333h59.083c21.207-218.711 191.538-389.042 410.25-410.25v-59.083h85.333v59.083c218.711 21.208 389.042 191.539 410.25 410.25h59.083v85.333h-59.083c-21.208 218.712-191.539 389.043-410.25 410.25v59.083h-85.333zM512 806.583l358.583-358.583-358.583-358.583-358.583 358.583 358.583 358.583zM383.083 798.333l-221.417-221.417c37.918 103.361 118.055 183.499 221.417 221.417zM640.917 798.333c103.361-37.918 183.499-118.055 221.417-221.417l-221.417 221.417zM161.667 319.083l221.417-221.417c-103.361 37.918-183.499 118.055-221.417 221.417zM862.333 319.083c-37.918-103.361-118.055-183.499-221.417-221.417l221.417 221.417z" />
<glyph unicode="&#xe927;" d="M512.017 294.4c84.83 0 153.6 68.77 153.6 153.6s-68.77 153.599-153.6 153.599c-84.83 0-153.6-68.769-153.6-153.599s68.771-153.6 153.6-153.6z" />
<glyph unicode="&#xe928;" glyph-name="map-size" d="M130.845 749.511l-130.845-130.845v341.333h341.333l-130.845-130.845 164.409-163.271-80.783-80.783-163.271 164.409zM813.513 829.155l-130.846 130.845h341.333v-341.333l-130.846 130.845-163.268-164.409-80.785 80.783 164.412 163.271zM341.333-64l-130.845 130.846 164.409 163.268-80.783 80.785-163.271-164.412-130.845 130.846v-341.333h341.333zM893.154 146.487l130.846 130.846v-341.333h-341.333l130.846 130.846-164.412 163.268 80.785 80.785 163.268-164.412z" />
<glyph unicode="&#xe929;" glyph-name="minus" d="M128 499.2c-28.277 0-51.2-22.923-51.2-51.2v0c0-28.277 22.923-51.2 51.2-51.2v0h768c28.277 0 51.2 22.923 51.2 51.2v0c0 28.277-22.923 51.2-51.2 51.2v0h-768z" />
<glyph unicode="&#xe92a;" glyph-name="plus" d="M512 883.2c-28.277 0-51.2-22.923-51.2-51.2v0-768c0-28.277 22.923-51.2 51.2-51.2v0c28.277 0 51.2 22.923 51.2 51.2v0 768c0 28.277-22.923 51.2-51.2 51.2v0zM128 499.2c-28.277 0-51.2-22.923-51.2-51.2v0c0-28.277 22.923-51.2 51.2-51.2v0h768c28.277 0 51.2 22.923 51.2 51.2v0c0 28.277-22.923 51.2-51.2 51.2v0h-768z" />
<glyph unicode="&#xe92b;" d="M818.227 833.152c-81.798 81.8-190.572 126.848-306.262 126.848-115.67 0-224.444-45.048-306.242-126.848s-126.848-190.572-126.848-306.262c0-234.020 221.284-428.669 340.154-533.245 16.516-14.515 30.792-27.072 42.15-37.69 14.236-13.293 32.512-19.955 50.788-19.955s36.55 6.662 50.808 19.955c11.358 10.618 25.634 23.174 42.15 37.69 118.87 104.576 340.157 299.226 340.157 533.245-0.006 115.69-45.056 224.461-126.854 306.262zM511.965 352.394c-105.234 0-190.852 85.618-190.852 190.872 0 105.234 85.618 190.852 190.852 190.852 105.254 0 190.87-85.618 190.87-190.852 0-105.254-85.616-190.872-190.87-190.872z" />
<glyph unicode="&#xe92c;" d="M945.114 526.89c0-234.020-221.286-428.669-340.156-533.245-16.516-14.515-30.792-27.072-42.15-37.69-14.256-13.293-32.532-19.955-50.808-19.955v416.394c105.254 0 190.874 85.618 190.874 190.872 0 105.234-85.619 190.852-190.874 190.852v225.882c115.69 0 224.467-45.048 306.266-126.848s126.848-190.572 126.848-306.262z" />
<glyph unicode="&#xe92d;" glyph-name="trash" d="M420.179 795.793c6.789 6.79 15.998 10.604 25.6 10.604h132.392c9.6 0 18.811-3.814 25.6-10.604 25.994-25.993 61.246-40.596 98.008-40.596h168.595c13.581 0 26.605 5.395 36.205 14.996 19.994 19.996 19.994 52.413 0 72.408-9.6 9.601-22.624 14.996-36.205 14.996h-168.595c-9.6 0-18.81 3.814-25.6 10.604-25.997 25.993-61.246 40.596-98.008 40.596h-132.392c-36.76 0-72.015-14.603-98.008-40.596-6.79-6.79-15.998-10.604-25.6-10.604h-168.596c-13.58 0-26.602-5.395-36.204-14.996-19.994-19.995-19.994-52.413 0-72.408 9.602-9.601 22.625-14.996 36.204-14.996h168.596c36.76 0 72.015 14.603 98.008 40.596zM153.625 294.4c0-144.813 0-217.222 44.988-262.208 44.989-44.992 117.396-44.992 262.212-44.992h102.4c144.813 0 217.223 0 262.209 44.992 44.992 44.986 44.992 117.395 44.992 262.208v409.6h-716.801v-409.6zM256.025 601.6h512.001v-307.2c0-75.302-0.218-121.478-4.71-154.893-3.949-29.376-9.562-34.278-10.227-34.867l-0.058-0.045-0.045-0.058c-0.589-0.666-5.491-6.278-34.867-10.227-33.414-4.493-79.588-4.71-154.893-4.71h-102.4c-75.302 0-121.478 0.218-154.897 4.71-29.373 3.949-34.278 9.562-34.86 10.227l-0.048 0.058-0.053 0.045c-0.666 0.589-6.284 5.491-10.232 34.867-4.493 33.414-4.71 79.59-4.71 154.893v307.2z" />
<glyph unicode="&#xe92e;" glyph-name="findpoint" d="M512 634.182c-102.865 0-186.18-83.317-186.18-186.182s83.315-186.18 186.18-186.18c102.869 0 186.18 83.315 186.18 186.18 0 102.863-83.315 186.182-186.18 186.182zM928.119 494.545c-21.414 194.095-175.479 348.16-369.574 369.571v95.884h-93.090v-95.884c-194.095-21.41-348.16-175.475-369.571-369.571h-95.884v-93.090h95.884c21.41-194.095 175.477-348.16 369.571-369.574v-95.885h93.090v95.885c194.095 21.414 348.16 175.479 369.574 369.574h95.885v93.090h-95.885zM512 122.18c-179.896 0-325.817 145.92-325.817 325.82 0 179.896 145.92 325.817 325.817 325.817 179.9 0 325.82-145.918 325.82-325.817s-145.92-325.82-325.82-325.82z" />
<glyph unicode="&#xe92f;" glyph-name="warning" horiz-adv-x="1138" d="M1127.703 57.162l-494.29 856.272c-28.649 49.615-100.396 49.615-129.047 0l-494.29-856.272c-28.651-49.613 7.221-111.809 64.523-111.809h988.581c57.304 0 93.173 62.197 64.523 111.809zM569.589 649.751c31.676 0 57.298-26.322 56.371-58.001l-9.318-325.18c-0.7-25.623-21.663-45.887-47.286-45.887s-46.588 20.497-47.287 45.887l-9.084 325.18c-0.699 31.679 24.691 58.001 56.604 58.001zM568.888 61.588c-32.378 0-58.7 26.322-58.7 58.698 0 32.381 26.322 58.704 58.7 58.704 32.376 0 58.699-26.322 58.699-58.704 0-32.375-26.322-58.698-58.699-58.698z" />
<glyph unicode="&#xe930;" glyph-name="phone-sms" d="M517.999-64h-277.999c-132.336 0-240 107.665-240 240v544c0 132.336 107.664 240 240 240h12c22.092 0 40-17.908 40-40s-17.908-40-40-40h-12c-88.224 0-160-71.776-160-160v-544c0-88.222 71.776-160 160-160h277.999c88.226 0 160 71.778 160 160v66.001c0 22.093 17.907 40 40 40s40-17.907 40-40v-66.001c0-132.335-107.661-240-240-240zM360.284 371.716c0 0 19.716 22.391 48.284 22.391 9.828 0 19.75-2.099 28.966-6.686 36.548-18.197 76.028-27.422 117.338-27.422h204.233c70.217 0 136.354 27.038 186.24 76.134 50.039 49.25 77.969 115.052 78.643 185.283 0 0.128 0 0.256 0 0.384v71.814c0.631 71.206-26.47 138.134-76.331 188.476-49.758 50.24-116.403 77.908-187.657 77.908h-204.002c-70.767 0-137.316-27.844-187.39-78.4-50.028-50.51-77.226-117.262-76.598-187.986l-0.010-293.614c0-16.179 9.746-30.763 24.692-36.958 4.95-2.048 10.144-3.042 15.298-3.042 10.41 0 20.642 4.066 28.294 11.716zM554.893 440c-28.843 0-56.333 6.404-81.702 19.038-32.162 16.009-68.112 19.046-101.188 10.21 0 0 0.006 224.808 0.006 224.936-0.472 49.284 18.504 95.848 53.438 131.12 34.936 35.272 81.302 54.696 130.552 54.696h204.002c49.737 0 96.196-19.25 130.816-54.206 34.769-35.104 53.653-81.842 53.175-131.61 0-0.128-0.004-72.178-0.004-72.178-1.062-100.398-83.947-182.006-184.9-182.006-0.026 0-0.064 0-0.085 0h-204.019c-0.030 0-0.060 0-0.090 0zM800 688h-283.998c-22.093 0-40.004 17.908-40.004 40s17.911 40 40.004 40h283.998c22.093 0 40-17.908 40-40s-17.907-40-40-40zM720 588c0 22.092-17.907 40-40 40h-163.998c-22.093 0-40.004-17.908-40.004-40s17.911-40 40.004-40h163.998c22.093 0 40 17.908 40 40zM382 205.999c-27.614 0-50-22.383-50-50.001 0-27.614 22.386-49.997 50-49.997s50 22.383 50 49.997c0 27.618-22.386 50.001-50 50.001z" />
<glyph unicode="&#xe931;" d="M1024 448c0-282.77-229.23-512-512-512s-512 229.23-512 512c0 282.77 229.23 512 512 512s512-229.23 512-512z" />
<glyph unicode="&#xe932;" d="M512 732.444c-31.419 0-56.889-25.47-56.889-56.889v0-26.778c0-31.419 25.47-56.889 56.889-56.889v0c31.419 0 56.889 25.47 56.889 56.889v0 26.778c0 31.419-25.47 56.889-56.889 56.889v0zM512 491.556c-31.419 0-56.889-25.47-56.889-56.889v0-214.222c0-31.419 25.47-56.889 56.889-56.889v0c31.419 0 56.889 25.47 56.889 56.889v0 214.222c0 31.419-25.47 56.889-56.889 56.889v0z" />
<glyph unicode="&#xe933;" glyph-name="loader" d="M235.52 448c0 14.138 12.837 25.6 28.672 25.6h86.016c15.835 0 28.672-11.462 28.672-25.6s-12.837-25.6-28.672-25.6h-86.016c-15.835 0-28.672 11.462-28.672 25.6zM272.561 586.24c7.069 12.244 23.917 15.752 37.631 7.834l74.492-43.008c13.714-7.918 19.1-24.262 12.031-36.506s-23.917-15.752-37.631-7.834l-74.492 43.008c-13.714 7.918-19.1 24.262-12.031 36.506zM373.76 687.439c12.244 7.069 28.589 1.683 36.506-12.031l43.008-74.492c7.918-13.714 4.41-30.561-7.834-37.631s-28.589-1.683-36.506 12.031l-43.008 74.492c-7.918 13.714-4.41 30.561 7.834 37.631zM512 724.48c14.138 0 25.6-12.837 25.6-28.672v-86.016c0-15.835-11.462-28.672-25.6-28.672s-25.6 12.837-25.6 28.672v86.016c0 15.835 11.462 28.672 25.6 28.672zM650.24 687.439c12.244-7.069 15.752-23.917 7.834-37.631l-43.008-74.492c-7.918-13.714-24.262-19.1-36.506-12.031s-15.752 23.917-7.834 37.631l43.008 74.492c7.918 13.714 24.262 19.1 36.506 12.031zM751.439 586.24c7.069-12.244 1.683-28.589-12.031-36.506l-74.492-43.008c-13.714-7.918-30.561-4.41-37.631 7.834s-1.683 28.589 12.031 36.506l74.492 43.008c13.714 7.918 30.561 4.41 37.631-7.834zM788.48 448c0-14.138-12.837-25.6-28.672-25.6h-86.016c-15.835 0-28.672 11.462-28.672 25.6s12.837 25.6 28.672 25.6h86.016c15.835 0 28.672-11.462 28.672-25.6zM751.439 309.76c-7.069-12.244-23.917-15.752-37.631-7.834l-74.492 43.008c-13.714 7.918-19.1 24.262-12.031 36.506s23.917 15.752 37.631 7.834l74.492-43.008c13.714-7.918 19.1-24.262 12.031-36.506zM650.24 208.561c-12.244-7.069-28.589-1.683-36.506 12.031l-43.008 74.492c-7.918 13.714-4.41 30.561 7.834 37.631s28.589 1.683 36.506-12.031l43.008-74.492c7.918-13.714 4.41-30.561-7.834-37.631zM512 171.52c-14.138 0-25.6 12.837-25.6 28.672v86.016c0 15.835 11.462 28.672 25.6 28.672s25.6-12.837 25.6-28.672v-86.016c0-15.835-11.462-28.672-25.6-28.672zM373.76 208.561c-12.244 7.069-15.752 23.917-7.834 37.631l43.008 74.492c7.918 13.714 24.262 19.1 36.506 12.031s15.752-23.917 7.834-37.631l-43.008-74.492c-7.918-13.714-24.262-19.1-36.506-12.031zM272.561 309.76c-7.069 12.244-1.683 28.589 12.031 36.506l74.492 43.008c13.714 7.918 30.561 4.41 37.631-7.834s1.683-28.589-12.031-36.506l-74.492-43.008c-13.714-7.918-30.561-4.41-37.631 7.834z" />
<glyph unicode="&#xe934;" glyph-name="call-outline" d="M270 925.4l-123.3-13.7c-71.39-7.932-133.111-71.45-123.1-148.1 14.661-112.254 73.531-312.133 282.7-521.3 209.174-209.174 409.058-268.060 521.3-282.7 76.641-9.997 140.17 51.826 148.1 123.2l13.7 123.2c6.751 60.74-23.433 120.085-76.5 150.4l-84.9 48.5c-59.928 34.243-135.997 23.995-184.8-24.8l-11.5-11.5c-11.892-11.892-21.941-13.745-30.3-9.5-25.512 12.958-61.625 35.925-102 76.3s-63.344 76.489-76.3 102c-4.243 8.355-2.493 18.407 9.4 30.3 0.015 0 0.032 0 0.050 0s0.035 0 0.053 0h-0.003l11.5 11.5c48.802 48.802 58.934 124.873 24.7 184.8l-48.5 85c-30.314 53.065-89.561 83.149-150.3 76.4zM281.3 823.7c20.428 2.27 39.904-7.653 50.1-25.5l48.5-85c11.572-20.257 8.296-45.104-8.2-61.6l-11.6-11.5c-36.526-36.526-55.063-96.301-28.3-149 17.515-34.488 46.949-79.848 95.2-128.1s93.515-77.684 128-95.2c52.702-26.762 112.577-8.123 149.1 28.4l11.5 11.5c16.498 16.495 41.349 19.871 61.6 8.3l84.9-48.6c17.845-10.194 27.77-29.678 25.5-50.1l-13.7-123.2c-2.648-23.828-14.754-35.393-33.1-33-93.367 12.178-269.016 60.516-462.1 253.6-193.079 193.077-241.403 368.711-253.6 462.1-2.396 18.348 9.070 30.552 32.9 33.2l123.3 13.7z" />
<glyph unicode="&#xe935;" glyph-name="lock" d="M512 448c28.278 0 51.2-17.567 51.2-102.4s-22.922-102.4-51.2-102.4c-28.277 0-51.2 17.567-51.2 102.4s22.923 102.4 51.2 102.4zM876.611 607.812c44.989-44.988 44.989-117.396 44.989-262.212v-51.2c0-144.814 0-217.221-44.989-262.211s-117.396-44.989-262.211-44.989h-204.8c-144.816 0-217.223 0-262.212 44.989s-44.988 117.396-44.988 262.211v51.2c0 144.816 0 217.223 44.988 262.212 25.082 25.082 58.687 36.18 108.612 41.091v3.897c0 141.385 114.615 256 256 256s256-114.615 256-256v-3.897c49.925-4.911 83.528-16.009 108.611-41.091zM665.6 652.8c0 84.831-68.767 153.6-153.6 153.6-84.831 0-153.6-68.769-153.6-153.6v-0.089c15.985 0.089 33.022 0.089 51.2 0.089h204.8c18.176 0 35.215 0 51.2-0.089v0.089zM409.6 550.4c-75.302 0-121.478-0.218-154.896-4.71-29.373-3.949-34.277-9.566-34.86-10.232l-0.048-0.053-0.053-0.048c-0.667-0.582-6.283-5.487-10.232-34.86-4.493-33.418-4.71-79.591-4.71-154.896v-51.2c0-75.305 0.218-121.477 4.71-154.895 3.949-29.373 9.566-34.278 10.232-34.862l0.053-0.046 0.048-0.056c0.582-0.666 5.486-6.282 34.86-10.23 33.418-4.495 79.594-4.71 154.896-4.71h204.8c75.305 0 121.477 0.215 154.895 4.71 29.373 3.948 34.278 9.564 34.862 10.23l0.046 0.056 0.056 0.046c0.666 0.584 6.282 5.489 10.23 34.862 4.495 33.418 4.71 79.59 4.71 154.895v51.2c0 75.305-0.215 121.478-4.71 154.896-3.948 29.373-9.564 34.278-10.23 34.86l-0.056 0.048-0.046 0.053c-0.584 0.667-5.489 6.283-34.862 10.232-33.418 4.493-79.59 4.71-154.895 4.71h-204.8z" />
<glyph unicode="&#xe936;" glyph-name="emoji" d="M730.655 455.474c-144.338 28.869-292.97 28.869-437.311 0-21.714-4.343-37.8-23.515-34.518-45.413 8.071-53.857 33.181-104.1 72.154-143.073 48.009-48.010 113.124-74.982 181.019-74.982 67.897 0 133.014 26.972 181.019 74.982 38.973 38.973 64.082 89.216 72.156 143.073 3.282 21.898-12.805 41.070-34.519 45.413zM403.387 339.395c-8.212 8.212-15.398 17.26-21.476 26.941 86.363 11.187 173.814 11.187 260.178 0-6.077-9.682-13.266-18.729-21.478-26.941-28.805-28.805-67.876-44.989-108.612-44.989-40.737 0-79.806 16.184-108.612 44.989zM409.6 601.6c0-28.277-22.923-51.2-51.2-51.2s-51.2 22.923-51.2 51.2c0 28.277 22.923 51.2 51.2 51.2s51.2-22.923 51.2-51.2zM665.6 550.4c28.278 0 51.2 22.923 51.2 51.2s-22.922 51.2-51.2 51.2c-28.278 0-51.2-22.923-51.2-51.2s22.922-51.2 51.2-51.2zM972.8 448c0 254.493-206.305 460.8-460.8 460.8-254.493 0-460.8-206.307-460.8-460.8 0-254.495 206.307-460.8 460.8-460.8 254.495 0 460.8 206.305 460.8 460.8zM870.4 448c0-197.939-160.461-358.4-358.4-358.4s-358.4 160.461-358.4 358.4c0 197.939 160.461 358.4 358.4 358.4s358.4-160.461 358.4-358.4z" />
<glyph unicode="&#xe937;" glyph-name="call" d="M270 925.4l-123.3-13.7c-71.39-7.932-133.111-71.45-123.1-148.1 14.661-112.254 73.531-312.133 282.7-521.3 209.174-209.174 409.058-268.060 521.3-282.7 76.641-9.997 140.17 51.826 148.1 123.2l13.7 123.2c6.751 60.74-23.433 120.085-76.5 150.4l-84.9 48.5c-59.928 34.243-135.997 23.995-184.8-24.8l-11.5-11.5c-11.892-11.892-21.941-13.745-30.3-9.5-25.512 12.958-61.625 35.925-102 76.3s-63.344 76.489-76.3 102c-4.243 8.355-2.493 18.407 9.4 30.3 0.015 0 0.032 0 0.050 0s0.035 0 0.053 0h-0.003l11.5 11.5c48.802 48.802 58.934 124.873 24.7 184.8l-48.5 85c-30.314 53.065-89.561 83.149-150.3 76.4zM281.3 823.7c20.428 2.27 39.904-7.653 50.1-25.5l48.5-85c11.572-20.257 8.296-45.104-8.2-61.6l-11.6-11.5c-36.526-36.526-55.063-96.301-28.3-149 17.515-34.488 46.949-79.848 95.2-128.1s93.515-77.684 128-95.2c52.702-26.762 112.577-8.123 149.1 28.4l11.5 11.5c16.498 16.495 41.349 19.871 61.6 8.3l84.9-48.6c17.845-10.194 27.77-29.678 25.5-50.1l-13.7-123.2c-2.648-23.828-14.754-35.393-33.1-33-93.367 12.178-269.016 60.516-462.1 253.6-193.079 193.077-241.403 368.711-253.6 462.1-2.396 18.348 9.070 30.552 32.9 33.2l123.3 13.7z" />
<glyph unicode="&#xe938;" glyph-name="left-arrow" d="M414.917 789.333c-0.076 0-0.167 0.001-0.257 0.001-12.112 0-23.045-5.047-30.811-13.152l-0.015-0.015-286.667-298.667c-7.328-7.649-11.84-18.048-11.84-29.5s4.512-21.851 11.854-29.515l-0.015 0.015 286.667-298.667c7.775-8.075 18.677-13.090 30.752-13.090 11.452 0 21.85 4.512 29.514 11.854l-0.015-0.015c8.075 7.775 13.090 18.677 13.090 30.752 0 11.452-4.512 21.85-11.854 29.514l0.015-0.015-258.25 269.167 258.25 269.167c7.328 7.649 11.84 18.047 11.84 29.498 0 12.074-5.015 22.977-13.076 30.739l-0.013 0.013c-7.561 7.282-17.825 11.803-29.145 11.916h-0.022zM182.083 403.981c-23.564 0-42.667 19.103-42.667 42.667v0c0 23.564 19.103 42.667 42.667 42.667v0h671.25c23.564 0 42.667-19.103 42.667-42.667v0c0-23.564-19.103-42.667-42.667-42.667v0h-671.25z" />
<glyph unicode="&#xe939;" glyph-name="resize-small" d="M244.622 795.022l130.844 130.844v-341.333h-341.333l130.844 130.844-164.978 164.978 79.644 79.644 164.978-164.978zM859.022 715.378l130.844-130.844h-341.333v341.333l130.844-130.844 164.978 164.978 79.644-79.644-164.978-164.978zM34.133 311.467l130.844-130.844-164.978-164.978 79.644-79.644 164.978 164.978 130.844-130.844v341.333h-341.333zM779.378 100.978l-130.844-130.844v341.333h341.333l-130.844-130.844 164.978-164.978-79.644-79.644-164.978 164.978z" />
</font>
</defs>
</svg>
